<?xml version="1.0" encoding="utf-8"?>
<!-- Generator: Adobe Illustrator 16.0.0, SVG Export Plug-In . SVG Version: 6.00 Build 0)  -->
<!DOCTYPE svg PUBLIC "-//W3C//DTD SVG 1.1//EN" "http://www.w3.org/Graphics/SVG/1.1/DTD/svg11.dtd">
<svg version="1.1" id="Layer_1" xmlns="http://www.w3.org/2000/svg" xmlns:xlink="http://www.w3.org/1999/xlink" x="0px" y="0px"
	 width="50px" height="50px" viewBox="0 0 50 50" enable-background="new 0 0 50 50" xml:space="preserve">
<path fill="#FFFFFF" d="M25.025,0.348C11.425,0.348,0.4,11.375,0.4,24.973c0,13.6,11.025,24.623,24.625,24.623
	S49.65,38.573,49.65,24.973C49.65,11.375,38.625,0.348,25.025,0.348z M31.543,24.87H27.28c0,6.814,0,15.207,0,15.207h-6.321
	c0,0,0-8.307,0-15.207h-3.005V19.5h3.005v-3.479c0-2.49,1.183-6.377,6.379-6.377l4.68,0.018v5.215c0,0-2.846,0-3.398,0
	c-0.554,0-1.339,0.277-1.339,1.461V19.5h4.817L31.543,24.87z"/>
</svg>
