<?xml version="1.0" encoding="utf-8"?>
<!-- Generator: Adobe Illustrator 16.0.0, SVG Export Plug-In . SVG Version: 6.00 Build 0)  -->
<!DOCTYPE svg PUBLIC "-//W3C//DTD SVG 1.1//EN" "http://www.w3.org/Graphics/SVG/1.1/DTD/svg11.dtd">
<svg version="1.1" id="logo" xmlns="http://www.w3.org/2000/svg" xmlns:xlink="http://www.w3.org/1999/xlink" x="0px" y="0px"
	 width="480px" height="480px" viewBox="0 0 480 480" enable-background="new 0 0 480 480" xml:space="preserve">
<g>
	<circle fill="#26B99A" cx="239.973" cy="239.668" r="235.448"/>
</g>
<path display="none" fill-rule="evenodd" clip-rule="evenodd" fill="#FFFFFF" stroke="#FFFFFF" stroke-width="3" stroke-miterlimit="10" d="
	M174.585,199.848c16.341-0.235,32.229,2.255,47.678,7.601c2.611,0.904,5.313,1.576,8.011,2.195c5.067,1.163,9.99,0.123,14.866-1.228
	c6.063-1.679,12.107-3.42,18.183-5.059c6.886-1.859,13.909-2.805,21.045-3.007c17.548-0.499,34.989,0.545,52.319,3.38
	c1.24,0.203,1.659,0.552,1.464,1.852c-0.469,3.083-0.774,6.189-1.187,9.28c-0.082,0.633-0.018,1.34-0.93,1.648
	c-2.998,1.01-4.418,3.443-5.157,6.282c-0.606,2.342-0.921,4.757-1.398,7.134c-1.046,5.201-1.809,10.482-3.246,15.574
	c-2.003,7.096-5.919,13.014-12.432,16.893c-4.916,2.924-10.3,4.473-15.963,4.742c-10.822,0.51-21.284-1.162-31.216-5.715
	c-6.141-2.818-10.256-7.713-13.911-13.145c-3.303-4.91-5.045-10.479-6.975-15.982c-0.895-2.555-1.943-5.063-3.056-7.532
	c-1.18-2.618-3.251-3.979-6.194-3.855c-0.346,0.013-0.701,0.027-1.039-0.034c-3.318-0.605-5.287,0.998-6.401,3.937
	c-1.228,3.239-2.294,6.543-3.642,9.729c-1.862,4.406-3.706,8.845-5.945,13.062c-4.125,7.77-10.502,13.121-18.792,16.059
	c-10.97,3.887-22.284,5.225-33.562,2.141c-11.677-3.193-19.712-10.734-22.506-22.854c-1.306-5.666-1.859-11.505-2.805-17.255
	c-0.233-1.417-0.555-2.839-1.028-4.192c-0.797-2.274-2.328-4.072-4.527-5.006c-1.375-0.585-1.72-1.387-1.794-2.719
	c-0.153-2.767-0.411-5.53-0.71-8.285c-0.113-1.046,0.076-1.521,1.237-1.747c9.316-1.808,18.711-2.946,28.182-3.458
	C166.963,200.079,170.775,199.991,174.585,199.848z M181.144,263.095c3.439,0.225,7.417-0.469,11.344-1.492
	c10.244-2.666,18.057-8.277,22.242-18.335c2.373-5.7,3.895-11.583,4.375-17.747c0.234-3.001-0.528-5.7-2.002-8.276
	c-2.783-4.862-6.985-7.69-12.38-8.962c-9.529-2.247-19.203-2.659-28.93-2.363c-4.969,0.152-9.925,0.522-14.726,1.963
	c-7.298,2.19-12.324,8.647-12.716,16.247c-0.292,5.655,0.427,11.184,1.993,16.609c1.89,6.547,5.144,12.227,10.671,16.41
	C166.776,261.511,173.337,263.286,181.144,263.095z M289.395,205.676c-4.26,0.314-8.554,0.408-12.774,1.004
	c-4.214,0.594-8.475,1.327-12.502,2.648c-7.568,2.484-12.014,10.03-11.127,17.902c0.628,5.552,2.059,10.866,4.228,16.015
	c3.366,7.988,9.042,13.535,17.118,16.68c6.118,2.381,12.438,3.447,18.996,3.166c11.93-0.516,20.866-5.789,26.107-16.676
	c3.133-6.513,4.225-13.516,4.232-20.709c0.011-10.217-6.876-16.956-15.457-18.529C301.986,206.034,295.713,205.773,289.395,205.676z
	"/>
<g>
	<g>
		<g>
			<polygon fill="#FFFFFF" points="354.585,172.793 348.729,172.793 348.729,139.803 131.272,139.803 131.272,172.793 
				125.416,172.793 125.416,133.947 354.585,133.947 			"/>
		</g>
	</g>
</g>
<g>
	<g>
		<rect x="125.416" y="171.622" fill="#FFFFFF" width="229.169" height="189.9"/>
	</g>
</g>
<g>
	<g>
		<rect x="141.618" y="121.812" fill="#FFFFFF" width="9.37" height="31.232"/>
	</g>
</g>
<g>
	<g>
		<rect x="165.042" y="121.813" fill="#FFFFFF" width="9.37" height="31.231"/>
	</g>
</g>
<g>
	<g>
		<rect x="188.466" y="121.813" fill="#FFFFFF" width="9.37" height="31.231"/>
	</g>
</g>
<g>
	<g>
		<rect x="211.891" y="121.845" fill="#FFFFFF" width="9.37" height="31.232"/>
	</g>
</g>
<g>
	<g>
		<rect x="235.315" y="121.845" fill="#FFFFFF" width="9.37" height="31.232"/>
	</g>
</g>
<g>
	<g>
		<rect x="258.739" y="121.845" fill="#FFFFFF" width="9.37" height="31.232"/>
	</g>
</g>
<g>
	<g>
		<rect x="282.163" y="121.845" fill="#FFFFFF" width="9.37" height="31.232"/>
	</g>
</g>
<g>
	<g>
		<rect x="305.588" y="121.845" fill="#FFFFFF" width="9.37" height="31.232"/>
	</g>
</g>
<g>
	<g>
		<rect x="329.013" y="121.845" fill="#FFFFFF" width="9.369" height="31.232"/>
	</g>
</g>
<g>
	<g>
		<path fill="#69A796" d="M336.625,342.978h-193.25V191.109h193.25V342.978z M149.23,337.122H330.77V196.965H149.23V337.122z"/>
	</g>
</g>
<g>
	<g>
		<path fill="#6AA897" d="M297.641,209.639h6.961v17.192h-3.689V212.91h-3.271V209.639z"/>
	</g>
	<g>
		<path fill="#6AA897" d="M308.635,212.91v-3.271h10.527v2.656l-3.519,4.01c1.379,0.229,2.444,0.807,3.198,1.734
			c0.754,0.926,1.132,1.996,1.132,3.209c0,1.804-0.61,3.218-1.833,4.243c-1.222,1.025-2.783,1.537-4.684,1.537
			c-1.904,0-3.83-0.672-5.781-2.017l1.573-3.05c1.625,1.148,3.075,1.722,4.354,1.722c0.77,0,1.406-0.188,1.906-0.565
			c0.5-0.376,0.75-0.922,0.75-1.635c0-0.713-0.287-1.279-0.861-1.698c-0.575-0.417-1.369-0.626-2.385-0.626
			c-0.543,0-1.305,0.156-2.288,0.467v-2.829l3.296-3.887H308.635z"/>
	</g>
</g>
<g>
	<path fill="#68A695" d="M239.89,297.071c-23.561,0-36.541-12.202-43.284-22.449c-7.176-10.904-8.83-21.798-8.897-22.257
		c-0.438-3.006,1.643-5.798,4.648-6.236c3.003-0.438,5.789,1.636,6.235,4.634c0.223,1.466,5.789,35.309,41.301,35.309
		c0.033,0,0.065,0,0.097,0c35.63-0.062,41.199-33.874,41.418-35.313c0.457-2.997,3.257-5.064,6.252-4.618
		c2.997,0.448,5.068,3.229,4.63,6.229c-0.065,0.446-7.059,44.624-52.281,44.703C239.97,297.071,239.929,297.071,239.89,297.071z"/>
</g>
</svg>
