<?xml version="1.0" encoding="utf-8"?>
<!-- Generator: Adobe Illustrator 16.0.0, SVG Export Plug-In . SVG Version: 6.00 Build 0)  -->
<!DOCTYPE svg PUBLIC "-//W3C//DTD SVG 1.1//EN" "http://www.w3.org/Graphics/SVG/1.1/DTD/svg11.dtd">
<svg version="1.1" id="Layer_1" xmlns="http://www.w3.org/2000/svg" xmlns:xlink="http://www.w3.org/1999/xlink" x="0px" y="0px"
	 width="50px" height="50px" viewBox="0 0 50 50" enable-background="new 0 0 50 50" xml:space="preserve">
<path fill="#FFFFFF" d="M25.035,0.348c-13.6,0-24.625,11.027-24.625,24.625c0,13.6,11.025,24.623,24.625,24.623
	s24.623-11.023,24.623-24.623C49.658,11.375,38.634,0.348,25.035,0.348z M37.44,20.008c0.012,0.267,0.018,0.534,0.018,0.803
	c0,8.201-6.242,17.657-17.657,17.657c-3.504,0-6.767-1.027-9.513-2.788c0.486,0.057,0.979,0.086,1.48,0.086
	c2.908,0,5.584-0.992,7.708-2.656c-2.715-0.051-5.007-1.845-5.796-4.31c0.378,0.073,0.767,0.111,1.167,0.111
	c0.566,0,1.114-0.075,1.635-0.218c-2.84-0.57-4.979-3.079-4.979-6.084c0-0.027,0-0.053,0.001-0.079
	c0.836,0.465,1.793,0.744,2.811,0.777c-1.666-1.115-2.761-3.013-2.761-5.166c0-1.138,0.306-2.204,0.84-3.12
	c3.061,3.755,7.634,6.225,12.792,6.483c-0.106-0.454-0.161-0.928-0.161-1.414c0-3.427,2.779-6.205,6.206-6.205
	c1.785,0,3.397,0.754,4.529,1.959c1.415-0.277,2.742-0.795,3.941-1.506c-0.464,1.45-1.448,2.666-2.729,3.434
	c1.256-0.15,2.452-0.484,3.564-0.978C39.706,18.04,38.652,19.133,37.44,20.008z"/>
</svg>
